<?xml version="1.0" encoding="UTF-8" standalone="no"?><!-- Generator: Gravit.io --><svg xmlns="http://www.w3.org/2000/svg" xmlns:xlink="http://www.w3.org/1999/xlink" style="isolation:isolate" viewBox="0 0 150 150" width="150pt" height="150pt"><defs><clipPath id="_clipPath_pSKOJ57zJxS4u4RRAJso9vI0GhNwHMVm"><rect width="150" height="150"/></clipPath></defs><g clip-path="url(#_clipPath_pSKOJ57zJxS4u4RRAJso9vI0GhNwHMVm)"><linearGradient id="_lgradient_6" x1="0.09325396825396838" y1="0.7896825396825399" x2="1.1964285714285714" y2="0.07341269841269893" gradientTransform="matrix(144,0,0,144,3,3)" gradientUnits="userSpaceOnUse"><stop offset="0%" stop-opacity="1" style="stop-color:rgb(102,69,253)"/><stop offset="100%" stop-opacity="1" style="stop-color:rgb(255,61,0)"/></linearGradient><path d=" M 3 75 C 3 35.262 35.262 3 75 3 C 114.738 3 147 35.262 147 75 C 147 114.738 114.738 147 75 147 C 35.262 147 3 114.738 3 75 Z  M 9 75 C 9 38.574 38.574 9 75 9 C 111.426 9 141 38.574 141 75 C 141 111.426 111.426 141 75 141 C 38.574 141 9 111.426 9 75 Z " fill-rule="evenodd" fill="url(#_lgradient_6)"/><linearGradient id="_lgradient_7" x1="0.09325396825396838" y1="0.7896825396825399" x2="1.1964285714285714" y2="0.07341269841269893" gradientTransform="matrix(126,0,0,126,12,12)" gradientUnits="userSpaceOnUse"><stop offset="0%" stop-opacity="1" style="stop-color:rgb(100,69,255)"/><stop offset="98.33333333333333%" stop-opacity="1" style="stop-color:rgb(255,61,0)"/></linearGradient><circle vector-effect="non-scaling-stroke" cx="75" cy="75" r="63.00000000000001" fill="url(#_lgradient_7)"/><clipPath id="_clipPath_IXQWebfkaWsPq7HtthFrvLogdDL17p8O"><circle vector-effect="non-scaling-stroke" cx="75" cy="75" r="63.00000000000001" fill="url(#_lgradient_7)"/></clipPath><g clip-path="url(#_clipPath_IXQWebfkaWsPq7HtthFrvLogdDL17p8O)"><path d=" M 60.945 41.5 C 50.215 41.523 41.523 50.215 41.5 60.945 L 41.5 89.07 C 41.528 99.795 50.22 108.48 60.945 108.5 L 89.07 108.5 C 99.795 108.472 108.48 99.78 108.5 89.055 L 108.5 60.945 C 108.477 50.215 99.785 41.523 89.055 41.5 L 60.945 41.5 Z  M 60.945 46.654 L 89.055 46.654 C 92.849 46.641 96.491 48.143 99.174 50.826 C 101.857 53.509 103.359 57.151 103.346 60.945 L 103.346 89.055 C 103.36 92.846 101.861 96.487 99.181 99.17 C 96.501 101.853 92.862 103.356 89.07 103.346 L 60.945 103.346 C 57.154 103.36 53.513 101.861 50.83 99.181 C 48.147 96.501 46.644 92.862 46.654 89.07 L 46.654 60.945 C 46.641 57.151 48.143 53.509 50.826 50.826 C 53.509 48.143 57.151 46.641 60.945 46.654 Z  M 95.615 51.808 C 94.192 51.808 93.038 52.961 93.038 54.385 C 93.038 55.808 94.192 56.962 95.615 56.962 C 97.039 56.962 98.192 55.808 98.192 54.385 C 98.192 52.961 97.039 51.808 95.615 51.808 Z  M 75 56.962 C 65.049 56.99 56.99 65.049 56.962 75 C 56.99 84.951 65.049 93.01 75 93.038 C 84.951 93.01 93.01 84.951 93.038 75 C 93.01 65.049 84.951 56.99 75 56.962 L 75 56.962 Z  M 75 62.115 C 82.148 62.115 87.885 67.852 87.885 75 C 87.885 82.148 82.148 87.885 75 87.885 C 71.579 87.896 68.296 86.542 65.877 84.123 C 63.458 81.704 62.104 78.421 62.115 75 C 62.115 67.852 67.852 62.115 75 62.115 Z " fill="rgb(255,255,255)"/></g></g></svg>