<?xml version="1.0" encoding="UTF-8" standalone="no"?><!-- Generator: Gravit.io --><svg xmlns="http://www.w3.org/2000/svg" xmlns:xlink="http://www.w3.org/1999/xlink" style="isolation:isolate" viewBox="0 0 150 150" width="150pt" height="150pt"><defs><clipPath id="_clipPath_uHvvOhTZ2hXFVdI9iqZe1inOdfYV1TP7"><rect width="150" height="150"/></clipPath></defs><g clip-path="url(#_clipPath_uHvvOhTZ2hXFVdI9iqZe1inOdfYV1TP7)"><linearGradient id="_lgradient_2" x1="0.09325396825396838" y1="0.7896825396825399" x2="1.1964285714285714" y2="0.07341269841269893" gradientTransform="matrix(144,0,0,144,3,3)" gradientUnits="userSpaceOnUse"><stop offset="0%" stop-opacity="1" style="stop-color:rgb(0,0,0)"/><stop offset="100%" stop-opacity="1" style="stop-color:rgb(2,136,209)"/></linearGradient><path d=" M 3 75 C 3 35.262 35.262 3 75 3 C 114.738 3 147 35.262 147 75 C 147 114.738 114.738 147 75 147 C 35.262 147 3 114.738 3 75 Z  M 9 75 C 9 38.574 38.574 9 75 9 C 111.426 9 141 38.574 141 75 C 141 111.426 111.426 141 75 141 C 38.574 141 9 111.426 9 75 Z " fill-rule="evenodd" fill="url(#_lgradient_2)"/><linearGradient id="_lgradient_3" x1="0.09325396825396838" y1="0.7896825396825399" x2="1.1964285714285714" y2="0.07341269841269893" gradientTransform="matrix(126,0,0,126,12,12)" gradientUnits="userSpaceOnUse"><stop offset="0%" stop-opacity="1" style="stop-color:rgb(0,0,0)"/><stop offset="98.33333333333333%" stop-opacity="1" style="stop-color:rgb(2,136,209)"/></linearGradient><circle vector-effect="non-scaling-stroke" cx="75" cy="75" r="63.00000000000001" fill="url(#_lgradient_3)"/><clipPath id="_clipPath_RmE6vVoahFbYqxX2ArEF66bzlSGjEnbv"><circle vector-effect="non-scaling-stroke" cx="75" cy="75" r="63.00000000000001" fill="url(#_lgradient_3)"/></clipPath><g clip-path="url(#_clipPath_RmE6vVoahFbYqxX2ArEF66bzlSGjEnbv)"><g><path d=" M 108 98.833 C 108 103.896 103.896 108 98.833 108 L 51.167 108 C 46.104 108 42 103.896 42 98.833 L 42 51.167 C 42 46.104 46.104 42 51.167 42 L 98.833 42 C 103.896 42 108 46.104 108 51.167 L 108 98.833 Z " fill="rgb(2,136,209)"/><g><rect x="53" y="65.833" width="9.167" height="31.167" transform="matrix(1,0,0,1,0,0)" fill="rgb(255,255,255)"/><path d=" M 57.556 62.167 L 57.504 62.167 C 54.769 62.167 53 60.128 53 57.581 C 53 54.98 54.824 53 57.609 53 C 60.397 53 62.115 54.98 62.167 57.581 C 62.167 60.126 60.397 62.167 57.556 62.167 Z  M 97 97 L 87.833 97 L 87.833 80.318 C 87.833 76.289 85.587 73.539 81.981 73.539 C 79.229 73.539 77.741 75.394 77.018 77.187 C 76.755 77.829 76.833 79.603 76.833 80.5 L 76.833 97 L 67.667 97 L 67.667 65.833 L 76.833 65.833 L 76.833 70.629 C 78.155 68.583 80.225 65.833 85.52 65.833 C 92.079 65.833 96.998 69.958 96.998 79.169 L 97 97 Z " fill="rgb(255,255,255)"/></g></g></g></g></svg>