<?xml version="1.0" encoding="UTF-8" standalone="no"?><!-- Generator: Gravit.io --><svg xmlns="http://www.w3.org/2000/svg" xmlns:xlink="http://www.w3.org/1999/xlink" style="isolation:isolate" viewBox="0 0 150 150" width="150pt" height="150pt"><defs><clipPath id="_clipPath_qyUKgor2MKK6V7ep2X9GsTjhGdnag4lu"><rect width="150" height="150"/></clipPath></defs><g clip-path="url(#_clipPath_qyUKgor2MKK6V7ep2X9GsTjhGdnag4lu)"><linearGradient id="_lgradient_0" x1="0.09325396825396838" y1="0.7896825396825399" x2="1.1964285714285714" y2="0.07341269841269893" gradientTransform="matrix(144,0,0,144,3,3)" gradientUnits="userSpaceOnUse"><stop offset="0%" stop-opacity="1" style="stop-color:rgb(0,0,0)"/><stop offset="100%" stop-opacity="1" style="stop-color:rgb(3,169,244)"/></linearGradient><path d=" M 3 75 C 3 35.262 35.262 3 75 3 C 114.738 3 147 35.262 147 75 C 147 114.738 114.738 147 75 147 C 35.262 147 3 114.738 3 75 Z  M 9 75 C 9 38.574 38.574 9 75 9 C 111.426 9 141 38.574 141 75 C 141 111.426 111.426 141 75 141 C 38.574 141 9 111.426 9 75 Z " fill-rule="evenodd" fill="url(#_lgradient_0)"/><linearGradient id="_lgradient_1" x1="0.09325396825396838" y1="0.7896825396825399" x2="1.1964285714285714" y2="0.07341269841269893" gradientTransform="matrix(126,0,0,126,12,12)" gradientUnits="userSpaceOnUse"><stop offset="0%" stop-opacity="1" style="stop-color:rgb(0,0,0)"/><stop offset="100%" stop-opacity="1" style="stop-color:rgb(3,169,244)"/></linearGradient><circle vector-effect="non-scaling-stroke" cx="75" cy="75" r="63.00000000000001" fill="url(#_lgradient_1)"/><clipPath id="_clipPath_vOvl2Ey86M2E9pWXXA3hbrfkMPxWBzSJ"><circle vector-effect="non-scaling-stroke" cx="75" cy="75" r="63.00000000000001" fill="url(#_lgradient_1)"/></clipPath><g clip-path="url(#_clipPath_vOvl2Ey86M2E9pWXXA3hbrfkMPxWBzSJ)"><path d=" M 115.661 49.997 C 112.611 51.339 109.379 52.222 106.071 52.617 C 109.547 50.551 112.156 47.294 113.411 43.449 C 110.134 45.381 106.55 46.739 102.816 47.465 C 99.654 44.12 95.249 42.233 90.647 42.25 C 81.436 42.25 73.962 49.652 73.962 58.783 C 73.962 60.071 74.111 61.335 74.394 62.551 C 61.008 61.898 48.521 55.621 40.013 45.268 C 35.589 52.833 37.856 62.537 45.174 67.359 C 42.526 67.272 39.936 66.565 37.612 65.295 L 37.612 65.489 C 37.612 73.507 43.365 80.188 50.988 81.715 C 49.559 82.105 48.085 82.303 46.604 82.304 C 45.526 82.304 44.476 82.182 43.464 81.997 C 45.58 88.552 51.737 93.342 59.044 93.485 C 52.03 98.928 43.154 101.387 34.339 100.328 C 41.988 105.18 50.86 107.754 59.918 107.75 C 90.604 107.75 107.394 82.553 107.394 60.689 C 107.394 59.976 107.367 59.26 107.331 58.564 C 110.606 56.239 113.428 53.336 115.661 49.997 Z " fill="rgb(3,169,244)"/></g></g></svg>