<?xml version="1.0" encoding="UTF-8" standalone="no"?><!-- Generator: Gravit.io --><svg xmlns="http://www.w3.org/2000/svg" xmlns:xlink="http://www.w3.org/1999/xlink" style="isolation:isolate" viewBox="0 0 150 150" width="150pt" height="150pt"><defs><clipPath id="_clipPath_mpZTGs5MPWaZrbEXncFuF8yGXSCdte5x"><rect width="150" height="150"/></clipPath></defs><g clip-path="url(#_clipPath_mpZTGs5MPWaZrbEXncFuF8yGXSCdte5x)"><linearGradient id="_lgradient_4" x1="0.09325396825396838" y1="0.7896825396825399" x2="1.1964285714285714" y2="0.07341269841269893" gradientTransform="matrix(144,0,0,144,3,3)" gradientUnits="userSpaceOnUse"><stop offset="0%" stop-opacity="1" style="stop-color:rgb(0,0,0)"/><stop offset="100%" stop-opacity="1" style="stop-color:rgb(255,61,0)"/></linearGradient><path d=" M 3 75 C 3 35.262 35.262 3 75 3 C 114.738 3 147 35.262 147 75 C 147 114.738 114.738 147 75 147 C 35.262 147 3 114.738 3 75 Z  M 9 75 C 9 38.574 38.574 9 75 9 C 111.426 9 141 38.574 141 75 C 141 111.426 111.426 141 75 141 C 38.574 141 9 111.426 9 75 Z " fill-rule="evenodd" fill="url(#_lgradient_4)"/><linearGradient id="_lgradient_5" x1="0.09325396825396838" y1="0.7896825396825399" x2="1.1964285714285714" y2="0.07341269841269893" gradientTransform="matrix(126,0,0,126,12,12)" gradientUnits="userSpaceOnUse"><stop offset="0%" stop-opacity="1" style="stop-color:rgb(0,0,0)"/><stop offset="98.33333333333333%" stop-opacity="1" style="stop-color:rgb(255,61,0)"/></linearGradient><circle vector-effect="non-scaling-stroke" cx="75" cy="75" r="63.00000000000001" fill="url(#_lgradient_5)"/><clipPath id="_clipPath_N7iiDRoJMp7ZlrWpTUn8f1IQ2TL8T9WS"><circle vector-effect="non-scaling-stroke" cx="75" cy="75" r="63.00000000000001" fill="url(#_lgradient_5)"/></clipPath><g clip-path="url(#_clipPath_N7iiDRoJMp7ZlrWpTUn8f1IQ2TL8T9WS)"><g><path d=" M 115.148 95.752 C 114.31 100.144 110.77 103.515 106.342 104.139 C 99.423 105.187 87.892 106.449 74.893 106.449 C 64.369 106.422 53.859 105.649 43.444 104.139 C 39.016 103.515 35.476 100.144 34.638 95.752 C 33.797 90.938 32.961 83.806 32.961 75 C 32.961 66.194 33.795 59.062 34.638 54.248 C 35.476 49.856 39.016 46.485 43.444 45.861 C 50.363 44.813 61.894 43.551 74.893 43.551 C 87.892 43.551 99.218 44.813 106.342 45.861 C 110.77 46.485 114.31 49.856 115.148 54.248 C 115.991 59.062 117.039 66.196 117.039 75 C 116.825 83.806 115.991 90.938 115.146 95.752 L 115.148 95.752 Z " fill="rgb(255,61,0)"/><path d=" M 66.507 89.676 L 66.507 60.324 L 91.666 75 L 66.507 89.676 Z " fill="rgb(255,255,255)"/></g></g></g></svg>